<?xml version="1.0" encoding="UTF-8"?>
<svg width="70px" height="78px" viewBox="0 0 70 78" version="1.1" xmlns="http://www.w3.org/2000/svg" xmlns:xlink="http://www.w3.org/1999/xlink">
    <!-- Generator: Sketch 53.1 (72631) - https://sketchapp.com -->
    <title>表具</title>
    <desc>Created with Sketch.</desc>
    <defs>
        <linearGradient x1="81.9510968%" y1="13.2376356%" x2="23.3008045%" y2="86.8859547%" id="linearGradient-1">
            <stop stop-color="#D2AB2D" offset="0%"></stop>
            <stop stop-color="#D27A1D" offset="100%"></stop>
        </linearGradient>
        <linearGradient x1="50%" y1="0%" x2="50%" y2="98.9363387%" id="linearGradient-2">
            <stop stop-color="#FFFFFF" offset="0%"></stop>
            <stop stop-color="#E2BB80" offset="100%"></stop>
        </linearGradient>
        <linearGradient x1="50%" y1="0%" x2="50%" y2="98.9363387%" id="linearGradient-3">
            <stop stop-color="#FFFFFF" offset="0%"></stop>
            <stop stop-color="#E2BB80" offset="100%"></stop>
        </linearGradient>
        <linearGradient x1="50%" y1="0%" x2="50%" y2="98.9363387%" id="linearGradient-4">
            <stop stop-color="#FFFFFF" offset="0%"></stop>
            <stop stop-color="#E2BB80" offset="100%"></stop>
        </linearGradient>
    </defs>
    <g id="北秦" stroke="none" stroke-width="1" fill="none" fill-rule="evenodd">
        <g id="贵燃1" transform="translate(-420.000000, -621.000000)">
            <g id="分组-14" transform="translate(415.000000, 620.000000)">
                <g id="分组-18">
                    <path d="M45.5,3.17542648 L69.6410162,17.1132487 C72.7350269,18.8995766 74.6410162,22.2008468 74.6410162,25.7735027 L74.6410162,54.2264973 C74.6410162,57.7991532 72.7350269,61.1004234 69.6410162,62.8867513 L45,77.1132487 C41.9059892,78.8995766 38.0940108,78.8995766 35,77.1132487 L10.3589838,62.8867513 C7.26497308,61.1004234 5.35898385,57.7991532 5.35898385,54.2264973 L5.35898385,25.7735027 C5.35898385,22.2008468 7.26497308,18.8995766 10.3589838,17.1132487 L34.5,3.17542648 C37.9034118,1.21046574 42.0965882,1.21046574 45.5,3.17542648 Z" id="多边形-copy-2" fill="url(#linearGradient-1)"></path>
                    <g id="Instrument_monitoring_01" transform="translate(21.000000, 19.000000)">
                        <path d="M20.0000336,0 C8.95427971,0 0,9.17806772 0,20.4999655 C0,31.8215874 8.95427971,41 20.0000336,41 C31.0454511,41 40,31.8215874 40,20.4999655 C40,9.17806772 31.0454511,0 20.0000336,0 Z M20.0000336,37.7204829 C10.7213123,37.7204829 3.19925973,30.0105859 3.19925973,20.4999655 C3.19925973,10.9893451 10.7213123,3.27924122 20.0000336,3.27924122 C29.2786204,3.27924122 36.8004711,10.9893451 36.8004711,20.4999655 C36.8004711,30.0105859 29.2786204,37.7204829 20.0000336,37.7204829 Z" id="Fill-1" fill="url(#linearGradient-2)"></path>
                        <path d="M18.0645161,20.5001439 C18.0645161,21.9152569 19.2199391,23.0625 20.6453424,23.0625 C22.0703835,23.0625 23.2258065,21.9152569 23.2258065,20.5001439 C23.2258065,19.0847431 22.0703835,17.9375 20.6453424,17.9375 C19.2199391,17.9375 18.0645161,19.0847431 18.0645161,20.5001439 Z" id="Fill-2" fill="url(#linearGradient-3)"></path>
                        <path d="M17.4666863,20.7976659 C17.4666863,18.4190192 19.27809,16.4719243 21.575019,16.3000997 L21.575019,6.40625 C13.9055822,6.58445636 7.74193548,12.9591936 7.74193548,20.7976659 C7.74193548,25.443177 9.9072893,29.5745864 13.2676889,32.2065784 L19.0212855,24.2244156 C18.0700825,23.3972005 17.4666863,22.1695186 17.4666863,20.7976659 Z M32.2651498,17.3964427 C32.3928094,17.7949882 32.8142011,18.0134745 33.2066314,17.883714 L34.9563318,17.3057956 C35.3486946,17.1763781 35.5633735,16.7480516 35.4359839,16.349163 C35.3083242,15.9503431 34.8869325,15.7321312 34.4945697,15.8616173 L32.7448693,16.439467 C32.352439,16.5692276 32.1378276,16.9975542 32.2651498,17.3964427 Z M26.2542086,31.7529996 C26.1266164,31.3541797 25.7051572,31.1359678 25.3127944,31.2657284 C24.9206342,31.3952145 24.7057527,31.823541 24.8333449,32.222361 L25.4019064,34.0011308 C25.529296,34.4000194 25.9506877,34.6181626 26.343118,34.4887451 C26.7354808,34.3589845 26.9501597,33.930658 26.8227701,33.5317694 L26.2542086,31.7529996 Z M30.7272254,14.3280957 C30.969583,14.6671475 31.4368808,14.7424924 31.7704432,14.4958718 L33.259086,13.3966466 C33.5929184,13.1500261 33.6667733,12.6753123 33.4244157,12.335986 C33.1817881,11.9968655 32.7147602,11.9215893 32.3809278,12.1681413 L30.8922851,13.267435 C30.5587227,13.5137811 30.4845977,13.9887693 30.7272254,14.3280957 Z M29.3749509,29.8702703 C29.1323233,29.530944 28.6652954,29.4558736 28.331463,29.7022197 C27.9978331,29.9488403 27.9237757,30.4234855 28.1663358,30.7628804 L29.2478313,32.2760219 C29.4901889,32.6150737 29.9574868,32.6904186 30.2913192,32.443798 C30.6248816,32.1974519 30.6990066,31.7224637 30.4563789,31.3834118 L29.3749509,29.8702703 Z M28.331463,11.8929061 C28.6652954,12.1394581 29.1323233,12.0641818 29.3749509,11.7250614 L30.4563789,10.2119885 C30.6990066,9.87259357 30.6248816,9.39787983 30.2910492,9.15125924 C29.9574868,8.90498176 29.4901889,8.97998351 29.2478313,9.31937845 L28.1661333,10.8322455 C27.9237757,11.1715718 27.9978331,11.64656 28.331463,11.8929061 Z M33.259086,28.1984792 L31.7704432,27.0991855 C31.4368808,26.8528394 30.969583,26.9279097 30.7272254,27.267236 C30.4845977,27.6063565 30.5587227,28.0813447 30.8922851,28.3278967 L32.3809278,29.4271904 C32.7147602,29.6735366 33.1817881,29.5984662 33.4244157,29.2591399 C33.6667733,28.9197449 33.5929184,28.4450312 33.259086,28.1984792 Z M25.3127944,10.3296033 C25.7051572,10.4590894 26.1266164,10.2408776 26.2539385,9.84205763 L26.8227701,8.0632878 C26.9501597,7.66446787 26.7354808,7.23607268 26.343118,7.1066552 C25.9506877,6.97689462 25.529296,7.19538097 25.4016364,7.5942009 L24.8330749,9.37269626 C24.7057527,9.77158481 24.9203641,10.1999114 25.3127944,10.3296033 Z M18.6204165,31.2657284 C18.2280538,31.1359678 17.8065946,31.3544541 17.6792724,31.7529996 L17.1107109,33.5317694 C16.9830513,33.930658 17.1980002,34.3589845 17.5900929,34.4884706 C17.9825232,34.6181626 18.4039149,34.4000194 18.5315746,34.0011308 L19.1001361,32.222361 C19.2274582,31.823541 19.0128468,31.3952145 18.6204165,31.2657284 Z M34.9563318,24.2892616 L33.2066314,23.7113433 C32.8142011,23.5818572 32.3928094,23.800069 32.2651498,24.1989576 C32.1378276,24.597503 32.352439,25.0261041 32.7448693,25.1555902 L34.4948397,25.7335085 C34.8872025,25.8629946 35.3085942,25.6447828 35.4359839,25.2458942 C35.5633735,24.8473488 35.3486946,24.4190222 34.9563318,24.2892616 Z M21.9665717,31.8044647 C21.5541587,31.8044647 21.2197863,32.1444086 21.2197863,32.5636087 L21.2197863,34.4337804 C21.2197863,34.853255 21.5541587,35.1931303 21.9665717,35.1931303 C22.3793223,35.1931303 22.7136947,34.853255 22.7136947,34.4337804 L22.7136947,32.5636087 C22.7136947,32.1444086 22.3793223,31.8044647 21.9665717,31.8044647 Z M35.3821791,20.038316 L33.5422866,20.038316 C33.1296036,20.038316 32.7952311,20.3781913 32.7952311,20.7976659 C32.7952311,21.2169346 33.1296036,21.5568098 33.5422866,21.5568098 L35.3821791,21.5568098 C35.7946596,21.5568098 36.1290321,21.2169346 36.1290321,20.7976659 C36.1293021,20.3781913 35.7946596,20.038316 35.3821791,20.038316 Z M26.0772673,19.0759879 L28.9632805,16.0424999 L25.2342138,17.7159379 C25.5918094,18.1153067 25.8771028,18.5758161 26.0772673,19.0759879 Z" id="Fill-3" fill="url(#linearGradient-4)"></path>
                    </g>
                </g>
            </g>
        </g>
    </g>
</svg>