<?xml version="1.0" encoding="UTF-8"?>
<svg width="70px" height="78px" viewBox="0 0 70 78" version="1.1" xmlns="http://www.w3.org/2000/svg" xmlns:xlink="http://www.w3.org/1999/xlink">
    <!-- Generator: Sketch 53.1 (72631) - https://sketchapp.com -->
    <title>jizhongqi</title>
    <desc>Created with Sketch.</desc>
    <defs>
        <linearGradient x1="20.6550716%" y1="81.1128497%" x2="78.7822439%" y2="16.4871977%" id="linearGradient-1">
            <stop stop-color="#46B58B" offset="0%"></stop>
            <stop stop-color="#3784CC" offset="100%"></stop>
        </linearGradient>
        <linearGradient x1="50%" y1="0.395903716%" x2="50%" y2="99.8865076%" id="linearGradient-2">
            <stop stop-color="#FFFFFF" offset="0%"></stop>
            <stop stop-color="#A5CDCC" offset="100%"></stop>
        </linearGradient>
    </defs>
    <g id="北秦" stroke="none" stroke-width="1" fill="none" fill-rule="evenodd">
        <g id="贵燃1" transform="translate(-420.000000, -472.000000)">
            <g id="分组-15" transform="translate(415.000000, 471.000000)">
                <g id="分组-17">
                    <path d="M45.5,3.17542648 L69.6410162,17.1132487 C72.7350269,18.8995766 74.6410162,22.2008468 74.6410162,25.7735027 L74.6410162,54.2264973 C74.6410162,57.7991532 72.7350269,61.1004234 69.6410162,62.8867513 L45,77.1132487 C41.9059892,78.8995766 38.0940108,78.8995766 35,77.1132487 L10.3589838,62.8867513 C7.26497308,61.1004234 5.35898385,57.7991532 5.35898385,54.2264973 L5.35898385,25.7735027 C5.35898385,22.2008468 7.26497308,18.8995766 10.3589838,17.1132487 L34.5,3.17542648 C37.9034118,1.21046574 42.0965882,1.21046574 45.5,3.17542648 Z" id="多边形-copy" fill="url(#linearGradient-1)"></path>
                    <path d="M24.1578947,24.2105263 L56.8947368,24.2105263 C57.4470216,24.2105263 57.8947368,24.6582416 57.8947368,25.2105263 L57.8947368,46.7052632 C57.8947368,47.2575479 57.4470216,47.7052632 56.8947368,47.7052632 L24.1578947,47.7052632 C23.60561,47.7052632 23.1578947,47.2575479 23.1578947,46.7052632 L23.1578947,25.2105263 C23.1578947,24.6582416 23.60561,24.2105263 24.1578947,24.2105263 Z M28.0175439,28.1263158 C27.4652591,28.1263158 27.0175439,28.574031 27.0175439,29.1263158 L27.0175439,37.5684211 C27.0175439,38.1207058 27.4652591,38.5684211 28.0175439,38.5684211 L38.8830409,38.5684211 C39.4353257,38.5684211 39.8830409,38.1207058 39.8830409,37.5684211 L39.8830409,29.1263158 C39.8830409,28.574031 39.4353257,28.1263158 38.8830409,28.1263158 L28.0175439,28.1263158 Z M27.0175439,42.4842105 L27.0175439,43.7894737 L54.0350877,43.7894737 L54.0350877,42.4842105 L27.0175439,42.4842105 Z M28.3040936,47.7052632 L29.5906433,47.7052632 L29.5906433,52.9263158 L28.3040936,52.9263158 L28.3040936,47.7052632 Z M28.9473684,56.8421053 C30.0131811,56.8421053 30.877193,55.9655259 30.877193,54.8842105 C30.877193,53.8028951 30.0131811,52.9263158 28.9473684,52.9263158 C27.8815557,52.9263158 27.0175439,53.8028951 27.0175439,54.8842105 C27.0175439,55.9655259 27.8815557,56.8421053 28.9473684,56.8421053 Z M40.5263158,56.8421053 C41.5921285,56.8421053 42.4561404,55.9655259 42.4561404,54.8842105 C42.4561404,53.8028951 41.5921285,52.9263158 40.5263158,52.9263158 C39.4605031,52.9263158 38.5964912,53.8028951 38.5964912,54.8842105 C38.5964912,55.9655259 39.4605031,56.8421053 40.5263158,56.8421053 Z M52.1052632,56.8421053 C53.1710758,56.8421053 54.0350877,55.9655259 54.0350877,54.8842105 C54.0350877,53.8028951 53.1710758,52.9263158 52.1052632,52.9263158 C51.0394505,52.9263158 50.1754386,53.8028951 50.1754386,54.8842105 C50.1754386,55.9655259 51.0394505,56.8421053 52.1052632,56.8421053 Z M39.8830409,47.7052632 L41.1695906,47.7052632 L41.1695906,52.9263158 L39.8830409,52.9263158 L39.8830409,47.7052632 Z M51.4619883,47.7052632 L52.748538,47.7052632 L52.748538,52.9263158 L51.4619883,52.9263158 L51.4619883,47.7052632 Z" id="合并形状" fill="url(#linearGradient-2)"></path>
                </g>
            </g>
        </g>
    </g>
</svg>