<?xml version="1.0" encoding="UTF-8"?>
<svg width="70px" height="78px" viewBox="0 0 70 78" version="1.1" xmlns="http://www.w3.org/2000/svg" xmlns:xlink="http://www.w3.org/1999/xlink">
    <!-- Generator: Sketch 53.1 (72631) - https://sketchapp.com -->
    <title>guanliji</title>
    <desc>Created with Sketch.</desc>
    <defs>
        <linearGradient x1="81.9510968%" y1="13.2376356%" x2="23.3008045%" y2="86.8859547%" id="linearGradient-1">
            <stop stop-color="#6466FF" offset="0%"></stop>
            <stop stop-color="#A0135E" offset="100%"></stop>
        </linearGradient>
        <linearGradient x1="50%" y1="0%" x2="50%" y2="100%" id="linearGradient-2">
            <stop stop-color="#FFFFFF" offset="0%"></stop>
            <stop stop-color="#D7A1CF" offset="100%"></stop>
        </linearGradient>
        <linearGradient x1="50%" y1="0%" x2="50%" y2="100%" id="linearGradient-3">
            <stop stop-color="#FFFFFF" offset="0%"></stop>
            <stop stop-color="#D7A1CF" offset="100%"></stop>
        </linearGradient>
    </defs>
    <g id="北秦" stroke="none" stroke-width="1" fill="none" fill-rule="evenodd">
        <g id="贵燃1" transform="translate(-420.000000, -323.000000)">
            <g id="分组-16" transform="translate(415.000000, 322.000000)">
                <g id="分组-13">
                    <path d="M45.5,3.17542648 L69.6410162,17.1132487 C72.7350269,18.8995766 74.6410162,22.2008468 74.6410162,25.7735027 L74.6410162,54.2264973 C74.6410162,57.7991532 72.7350269,61.1004234 69.6410162,62.8867513 L45,77.1132487 C41.9059892,78.8995766 38.0940108,78.8995766 35,77.1132487 L10.3589838,62.8867513 C7.26497308,61.1004234 5.35898385,57.7991532 5.35898385,54.2264973 L5.35898385,25.7735027 C5.35898385,22.2008468 7.26497308,18.8995766 10.3589838,17.1132487 L34.5,3.17542648 C37.9034118,1.21046574 42.0965882,1.21046574 45.5,3.17542648 Z" id="多边形" fill="url(#linearGradient-1)"></path>
                    <g id="xiaoqu" transform="translate(23.589744, 24.615385)">
                        <path d="M17.912013,21.0855044 L23.5464253,21.0855044 L18.1717679,27.3132091 L18.1717679,28.089394 L24.4463125,28.089394 L24.4463125,32.7303466 L27.6484144,32.7303466 L27.6484144,28.089394 L33.8798265,28.089394 L33.8798265,27.2852466 L29.0396095,21.0855044 L34.2260209,21.0855044 L34.2260209,20.4794209 L26.253814,10.5977228 L17.912013,20.508719 L17.912013,21.0855044 Z M4.44011714,33.8461538 L4.39375415,10.4142012 L3.87991957,10.4142012 L0.645773979,12.3034134 L0.645773979,33.8461538 L4.44011714,33.8461538 Z" id="Fill-1" fill="url(#linearGradient-2)"></path>
                        <path d="M23.2925237,32.5443787 L23.2925237,29.0563421 L15.9293577,29.0563421 L15.8985558,28.1283772 L20.2566105,21.8788675 L15.0478433,21.8788675 L15.0478433,20.9513825 L23.8936153,10.8197576 L23.8936153,0.49964321 C23.8936153,0.190016223 23.9019331,0 23.5946074,0 L7.83136527,0 C7.5240396,0 7.10351377,0.190016223 7.10351377,0.49964321 L7.10351377,32.5443787 L23.2925237,32.5443787 Z M9.46538128,5.57782242 L21.5319211,5.57782242 L21.5319211,3.24301334 L9.46538128,3.24301334 L9.46538128,5.57782242 Z M9.46538128,10.0746113 L21.5319211,10.0746113 L21.5319211,7.69652948 L9.46538128,7.69652948 L9.46538128,10.0746113 Z" id="Fill-2" fill="url(#linearGradient-3)"></path>
                    </g>
                </g>
            </g>
        </g>
    </g>
</svg>